<svg width="157" height="66" viewBox="0 0 157 66" fill="none" xmlns="http://www.w3.org/2000/svg">
	<path fill-rule="evenodd" clip-rule="evenodd" d="M91.4691 12.0197C91.589 12.1901 91.6921 12.3737 91.7762 12.5686C96.7361 13.9067 100.387 18.3349 100.387 23.5771C100.387 29.8757 95.1166 35 88.6378 35C85.2553 35 82.2027 33.6028 80.0569 31.3715H71.9116C70.1585 31.3715 68.7323 29.9849 68.7323 28.2806C68.7323 27.3018 69.2032 26.4283 69.9359 25.8616C69.2032 25.2949 68.7323 24.4215 68.7323 23.4426C68.7323 22.4638 69.2032 21.5904 69.9359 21.0237C69.2032 20.457 68.7323 19.5835 68.7323 18.6047C68.7323 17.6259 69.2032 16.7525 69.9359 16.1857C69.2032 15.619 68.7323 14.7456 68.7323 13.7668C68.7323 12.0625 70.1585 10.6759 71.9116 10.6759H73.7142C73.3622 10.1785 73.1557 9.57679 73.1557 8.92884C73.1557 8.28089 73.3623 7.67917 73.7142 7.18181H68.1793C66.4263 7.18181 65 5.7952 65 4.0909C65 2.38661 66.4263 1 68.1793 1H85.1128C86.8658 1 88.2921 2.38661 88.2921 4.0909C88.2921 4.73885 88.0855 5.34057 87.7337 5.83794H93.2685C95.0215 5.83794 96.4478 7.22454 96.4478 8.92884C96.4478 10.6331 95.0215 12.0197 93.2685 12.0197H91.4691ZM95.0655 8.92884C95.0655 7.96555 94.2594 7.18181 93.2685 7.18181H76.335C75.3441 7.18181 74.538 7.96555 74.538 8.92884C74.538 9.89213 75.3441 10.6759 76.335 10.6759H88.845H93.2685C94.2594 10.6759 95.0655 9.89213 95.0655 8.92884ZM66.3823 4.0909C66.3823 5.05419 67.1884 5.83794 68.1793 5.83794H85.1128C86.1037 5.83794 86.9098 5.05419 86.9098 4.0909C86.9098 3.12762 86.1037 2.34387 85.1128 2.34387H68.1793C67.1884 2.34387 66.3823 3.12762 66.3823 4.0909ZM88.845 12.0197H71.9116C70.9208 12.0197 70.1146 12.8035 70.1146 13.7668C70.1146 14.7301 70.9208 15.5138 71.9116 15.5138H80.3232C82.4515 13.4395 85.3931 12.1542 88.6378 12.1542C88.9717 12.1542 89.3022 12.1686 89.6292 12.1953C89.39 12.0826 89.1234 12.0197 88.845 12.0197ZM79.1422 16.8577H71.9116C70.9207 16.8577 70.1146 17.6414 70.1146 18.6047C70.1146 19.5681 70.9207 20.3517 71.9116 20.3517H77.3657C77.7509 19.0814 78.3576 17.9027 79.1422 16.8577ZM77.0483 21.6956H71.9116C70.9207 21.6956 70.1146 22.4793 70.1146 23.4426C70.1146 24.406 70.9207 25.1897 71.9116 25.1897H77.0057C76.9287 24.6627 76.888 24.1245 76.888 23.5771C76.888 22.9363 76.9435 22.3079 77.0483 21.6956ZM70.1146 28.2806C70.1146 29.2439 70.9207 30.0276 71.9116 30.0276H78.9462C78.2032 28.9758 77.6366 27.7977 77.2879 26.5335H71.9116C70.9207 26.5335 70.1146 27.3172 70.1146 28.2806ZM78.2704 23.5771C78.2704 29.1347 82.9212 33.6561 88.6378 33.6561C94.3543 33.6561 99.0052 29.1347 99.0052 23.5771C99.0052 18.0195 94.3543 13.4981 88.6378 13.4981C82.9212 13.4981 78.2704 18.0195 78.2704 23.5771ZM86.8747 21.2802C86.8747 22.0967 87.6641 22.7609 88.6344 22.7609C90.4869 22.7609 91.9939 24.1228 91.9939 25.7969C91.9939 27.2219 90.9017 28.42 89.4343 28.7452V29.0811C89.4343 29.5105 89.0761 29.8588 88.6344 29.8588C88.1928 29.8588 87.8346 29.5105 87.8346 29.0811V28.7452C86.3671 28.42 85.275 27.2219 85.275 25.7969C85.275 25.3675 85.6332 25.0193 86.0749 25.0193C86.5166 25.0193 86.8747 25.3675 86.8747 25.7969C86.8747 26.6134 87.6641 27.2776 88.6344 27.2776C89.6048 27.2776 90.3941 26.6134 90.3941 25.7969C90.3941 24.9804 89.6048 24.3161 88.6344 24.3161C86.782 24.3161 85.275 22.9542 85.275 21.2802C85.275 19.8553 86.3671 18.6571 87.8346 18.3319V17.9275C87.8346 17.4981 88.1928 17.1499 88.6344 17.1499C89.0761 17.1499 89.4343 17.4981 89.4343 17.9275V18.3319C90.9017 18.6571 91.9939 19.8553 91.9939 21.2802C91.9939 21.7096 91.6357 22.0579 91.194 22.0579C90.7523 22.0579 90.3941 21.7096 90.3941 21.2802C90.3941 20.4637 89.6048 19.7995 88.6344 19.7995C87.6641 19.7995 86.8747 20.4637 86.8747 21.2802Z" fill="#FF872C"/>
	<path d="M91.7762 12.5686L91.5466 12.6677L91.5945 12.7785L91.7111 12.8099L91.7762 12.5686ZM91.4691 12.0197V11.7697H90.9874L91.2647 12.1637L91.4691 12.0197ZM80.0569 31.3715L80.2371 31.1982L80.1634 31.1215H80.0569V31.3715ZM69.9359 25.8616L70.0889 26.0594L70.3445 25.8616L70.0889 25.6639L69.9359 25.8616ZM69.9359 21.0237L70.0889 21.2214L70.3445 21.0237L70.0889 20.8259L69.9359 21.0237ZM69.9359 16.1857L70.0889 16.3835L70.3445 16.1857L70.0889 15.988L69.9359 16.1857ZM73.7142 10.6759V10.9259H74.1973L73.9182 10.5315L73.7142 10.6759ZM73.7142 7.18181L73.9182 7.32619L74.1973 6.93181H73.7142V7.18181ZM87.7337 5.83794L87.5296 5.69355L87.2505 6.08794H87.7337V5.83794ZM80.3232 15.5138V15.7638H80.4248L80.4977 15.6928L80.3232 15.5138ZM89.6292 12.1953L89.6088 12.4444L89.7357 11.9691L89.6292 12.1953ZM79.1422 16.8577L79.3421 17.0078L79.6425 16.6077H79.1422V16.8577ZM77.3657 20.3517V20.6017H77.5511L77.6049 20.4243L77.3657 20.3517ZM77.0483 21.6956L77.2947 21.7378L77.3448 21.4456H77.0483V21.6956ZM77.0057 25.1897V25.4397H77.2948L77.253 25.1536L77.0057 25.1897ZM78.9462 30.0276V30.2776H79.4288L79.1504 29.8834L78.9462 30.0276ZM77.2879 26.5335L77.5289 26.4671L77.4782 26.2835H77.2879V26.5335ZM89.4343 28.7452L89.3802 28.5011L89.1843 28.5445V28.7452H89.4343ZM87.8346 28.7452H88.0846V28.5445L87.8887 28.5011L87.8346 28.7452ZM87.8346 18.3319L87.8887 18.576L88.0846 18.5326V18.3319H87.8346ZM89.4343 18.3319H89.1843V18.5326L89.3802 18.576L89.4343 18.3319ZM92.0057 12.4695C91.9148 12.2589 91.8033 12.0602 91.6735 11.8758L91.2647 12.1637C91.3747 12.3199 91.4693 12.4886 91.5466 12.6677L92.0057 12.4695ZM100.637 23.5771C100.637 18.2145 96.9031 13.6928 91.8413 12.3272L91.7111 12.8099C96.5691 14.1206 100.137 18.4552 100.137 23.5771H100.637ZM88.6378 35.25C95.2479 35.25 100.637 30.0204 100.637 23.5771H100.137C100.137 29.731 94.9852 34.75 88.6378 34.75V35.25ZM79.8767 31.5448C82.0683 33.8237 85.1854 35.25 88.6378 35.25V34.75C85.3252 34.75 82.3371 33.3819 80.2371 31.1982L79.8767 31.5448ZM71.9116 31.6215H80.0569V31.1215H71.9116V31.6215ZM68.4823 28.2806C68.4823 30.1295 70.0272 31.6215 71.9116 31.6215V31.1215C70.2899 31.1215 68.9823 29.8402 68.9823 28.2806H68.4823ZM69.783 25.6639C68.9933 26.2746 68.4823 27.2192 68.4823 28.2806H68.9823C68.9823 27.3844 69.4131 26.582 70.0889 26.0594L69.783 25.6639ZM68.4823 23.4426C68.4823 24.5041 68.9933 25.4486 69.783 26.0594L70.0889 25.6639C69.4131 25.1412 68.9823 24.3388 68.9823 23.4426H68.4823ZM69.783 20.8259C68.9933 21.4367 68.4823 22.3812 68.4823 23.4426H68.9823C68.9823 22.5465 69.4131 21.7441 70.0889 21.2214L69.783 20.8259ZM68.4823 18.6047C68.4823 19.6661 68.9933 20.6107 69.783 21.2214L70.0889 20.8259C69.4131 20.3033 68.9823 19.5009 68.9823 18.6047H68.4823ZM69.783 15.988C68.9933 16.5987 68.4823 17.5433 68.4823 18.6047H68.9823C68.9823 17.7085 69.4131 16.9062 70.0889 16.3835L69.783 15.988ZM68.4823 13.7668C68.4823 14.8282 68.9933 15.7727 69.783 16.3835L70.0889 15.988C69.4131 15.4653 68.9823 14.663 68.9823 13.7668H68.4823ZM71.9116 10.4259C70.0272 10.4259 68.4823 11.9178 68.4823 13.7668H68.9823C68.9823 12.2071 70.2899 10.9259 71.9116 10.9259V10.4259ZM73.7142 10.4259H71.9116V10.9259H73.7142V10.4259ZM72.9057 8.92884C72.9057 9.63092 73.1297 10.2827 73.5101 10.8203L73.9182 10.5315C73.5947 10.0743 73.4057 9.52265 73.4057 8.92884H72.9057ZM73.5101 7.03742C73.1298 7.57498 72.9057 8.22674 72.9057 8.92884H73.4057C73.4057 8.33504 73.5948 7.78337 73.9182 7.32619L73.5101 7.03742ZM68.1793 7.43181H73.7142V6.93181H68.1793V7.43181ZM64.75 4.0909C64.75 5.93987 66.2949 7.43181 68.1793 7.43181V6.93181C66.5577 6.93181 65.25 5.65053 65.25 4.0909H64.75ZM68.1793 0.75C66.2949 0.75 64.75 2.24193 64.75 4.0909H65.25C65.25 2.53128 66.5577 1.25 68.1793 1.25V0.75ZM85.1128 0.75H68.1793V1.25H85.1128V0.75ZM88.5421 4.0909C88.5421 2.24193 86.9972 0.75 85.1128 0.75V1.25C86.7345 1.25 88.0421 2.53128 88.0421 4.0909H88.5421ZM87.9377 5.98232C88.318 5.44476 88.5421 4.793 88.5421 4.0909H88.0421C88.0421 4.6847 87.853 5.23637 87.5296 5.69355L87.9377 5.98232ZM93.2685 5.58794H87.7337V6.08794H93.2685V5.58794ZM96.6978 8.92884C96.6978 7.07987 95.1529 5.58794 93.2685 5.58794V6.08794C94.8901 6.08794 96.1978 7.36921 96.1978 8.92884H96.6978ZM93.2685 12.2697C95.1529 12.2697 96.6978 10.7778 96.6978 8.92884H96.1978C96.1978 10.4885 94.8901 11.7697 93.2685 11.7697V12.2697ZM91.4691 12.2697H93.2685V11.7697H91.4691V12.2697ZM93.2685 7.43181C94.128 7.43181 94.8155 8.11022 94.8155 8.92884H95.3155C95.3155 7.82089 94.3908 6.93181 93.2685 6.93181V7.43181ZM76.335 7.43181H93.2685V6.93181H76.335V7.43181ZM74.788 8.92884C74.788 8.11022 75.4755 7.43181 76.335 7.43181V6.93181C75.2127 6.93181 74.288 7.82089 74.288 8.92884H74.788ZM76.335 10.4259C75.4755 10.4259 74.788 9.74746 74.788 8.92884H74.288C74.288 10.0368 75.2127 10.9259 76.335 10.9259V10.4259ZM88.845 10.4259H76.335V10.9259H88.845V10.4259ZM93.2685 10.4259H88.845V10.9259H93.2685V10.4259ZM94.8155 8.92884C94.8155 9.74746 94.128 10.4259 93.2685 10.4259V10.9259C94.3908 10.9259 95.3155 10.0368 95.3155 8.92884H94.8155ZM68.1793 5.58794C67.3198 5.58794 66.6323 4.90952 66.6323 4.0909H66.1323C66.1323 5.19886 67.057 6.08794 68.1793 6.08794V5.58794ZM85.1128 5.58794H68.1793V6.08794H85.1128V5.58794ZM86.6598 4.0909C86.6598 4.90952 85.9723 5.58794 85.1128 5.58794V6.08794C86.2351 6.08794 87.1598 5.19886 87.1598 4.0909H86.6598ZM85.1128 2.59387C85.9723 2.59387 86.6598 3.27228 86.6598 4.0909H87.1598C87.1598 2.98295 86.2351 2.09387 85.1128 2.09387V2.59387ZM68.1793 2.59387H85.1128V2.09387H68.1793V2.59387ZM66.6323 4.0909C66.6323 3.27228 67.3198 2.59387 68.1793 2.59387V2.09387C67.057 2.09387 66.1323 2.98295 66.1323 4.0909H66.6323ZM71.9116 12.2697H88.845V11.7697H71.9116V12.2697ZM70.3646 13.7668C70.3646 12.9482 71.0521 12.2697 71.9116 12.2697V11.7697C70.7894 11.7697 69.8646 12.6588 69.8646 13.7668H70.3646ZM71.9116 15.2638C71.0521 15.2638 70.3646 14.5854 70.3646 13.7668H69.8646C69.8646 14.8747 70.7894 15.7638 71.9116 15.7638V15.2638ZM80.3232 15.2638H71.9116V15.7638H80.3232V15.2638ZM88.6378 11.9042C85.3261 11.9042 82.3224 13.2163 80.1487 15.3348L80.4977 15.6928C82.5807 13.6628 85.4601 12.4042 88.6378 12.4042V11.9042ZM89.6495 11.9461C89.3162 11.9189 88.9789 11.9042 88.6378 11.9042V12.4042C88.9645 12.4042 89.2883 12.4183 89.6088 12.4444L89.6495 11.9461ZM88.845 12.2697C89.0856 12.2697 89.3159 12.3241 89.5226 12.4214L89.7357 11.9691C89.4642 11.8412 89.1613 11.7697 88.845 11.7697V12.2697ZM71.9116 17.1077H79.1422V16.6077H71.9116V17.1077ZM70.3646 18.6047C70.3646 17.7861 71.0521 17.1077 71.9116 17.1077V16.6077C70.7893 16.6077 69.8646 17.4968 69.8646 18.6047H70.3646ZM71.9116 20.1017C71.0521 20.1017 70.3646 19.4234 70.3646 18.6047H69.8646C69.8646 19.7127 70.7893 20.6017 71.9116 20.6017V20.1017ZM77.3657 20.1017H71.9116V20.6017H77.3657V20.1017ZM78.9423 16.7076C78.1406 17.7753 77.5204 18.9802 77.1265 20.2792L77.6049 20.4243C77.9815 19.1827 78.5745 18.0301 79.3421 17.0078L78.9423 16.7076ZM71.9116 21.9456H77.0483V21.4456H71.9116V21.9456ZM70.3646 23.4426C70.3646 22.624 71.0521 21.9456 71.9116 21.9456V21.4456C70.7893 21.4456 69.8646 22.3346 69.8646 23.4426H70.3646ZM71.9116 24.9397C71.0521 24.9397 70.3646 24.2613 70.3646 23.4426H69.8646C69.8646 24.5507 70.7893 25.4397 71.9116 25.4397V24.9397ZM77.0057 24.9397H71.9116V25.4397H77.0057V24.9397ZM76.638 23.5771C76.638 24.1369 76.6797 24.6872 76.7583 25.2258L77.253 25.1536C77.1778 24.6382 77.138 24.112 77.138 23.5771H76.638ZM76.8019 21.6534C76.6947 22.2794 76.638 22.9218 76.638 23.5771H77.138C77.138 22.9507 77.1922 22.3365 77.2947 21.7378L76.8019 21.6534ZM71.9116 29.7776C71.0521 29.7776 70.3646 29.0993 70.3646 28.2806H69.8646C69.8646 29.3886 70.7893 30.2776 71.9116 30.2776V29.7776ZM78.9462 29.7776H71.9116V30.2776H78.9462V29.7776ZM77.0469 26.6C77.4035 27.8927 77.9828 29.0971 78.742 30.1718L79.1504 29.8834C78.4236 28.8545 77.8697 27.7026 77.5289 26.4671L77.0469 26.6ZM71.9116 26.7835H77.2879V26.2835H71.9116V26.7835ZM70.3646 28.2806C70.3646 27.4619 71.0521 26.7835 71.9116 26.7835V26.2835C70.7893 26.2835 69.8646 27.1726 69.8646 28.2806H70.3646ZM88.6378 33.4061C83.0525 33.4061 78.5204 28.99 78.5204 23.5771H78.0204C78.0204 29.2794 82.7898 33.9061 88.6378 33.9061V33.4061ZM98.7552 23.5771C98.7552 28.99 94.223 33.4061 88.6378 33.4061V33.9061C94.4857 33.9061 99.2552 29.2794 99.2552 23.5771H98.7552ZM88.6378 13.7481C94.223 13.7481 98.7552 18.1642 98.7552 23.5771H99.2552C99.2552 17.8748 94.4857 13.2481 88.6378 13.2481V13.7481ZM78.5204 23.5771C78.5204 18.1642 83.0525 13.7481 88.6378 13.7481V13.2481C82.7898 13.2481 78.0204 17.8748 78.0204 23.5771H78.5204ZM88.6344 22.5109C87.76 22.5109 87.1247 21.9199 87.1247 21.2802H86.6247C86.6247 22.2734 87.5682 23.0109 88.6344 23.0109V22.5109ZM92.2439 25.7969C92.2439 23.9615 90.6005 22.5109 88.6344 22.5109V23.0109C90.3732 23.0109 91.7439 24.2841 91.7439 25.7969H92.2439ZM89.4884 28.9893C91.0507 28.6431 92.2439 27.358 92.2439 25.7969H91.7439C91.7439 27.0857 90.7528 28.197 89.3802 28.5011L89.4884 28.9893ZM89.6843 29.0811V28.7452H89.1843V29.0811H89.6843ZM88.6344 30.1088C89.2075 30.1088 89.6843 29.6552 89.6843 29.0811H89.1843C89.1843 29.3659 88.9448 29.6088 88.6344 29.6088V30.1088ZM87.5846 29.0811C87.5846 29.6552 88.0614 30.1088 88.6344 30.1088V29.6088C88.3241 29.6088 88.0846 29.3659 88.0846 29.0811H87.5846ZM87.5846 28.7452V29.0811H88.0846V28.7452H87.5846ZM85.025 25.7969C85.025 27.358 86.2182 28.6431 87.7805 28.9893L87.8887 28.5011C86.5161 28.197 85.525 27.0857 85.525 25.7969H85.025ZM86.0749 24.7693C85.5018 24.7693 85.025 25.2228 85.025 25.7969H85.525C85.525 25.5121 85.7646 25.2693 86.0749 25.2693V24.7693ZM87.1247 25.7969C87.1247 25.2228 86.6479 24.7693 86.0749 24.7693V25.2693C86.3852 25.2693 86.6247 25.5121 86.6247 25.7969H87.1247ZM88.6344 27.0276C87.76 27.0276 87.1247 26.4366 87.1247 25.7969H86.6247C86.6247 26.7901 87.5682 27.5276 88.6344 27.5276V27.0276ZM90.1441 25.7969C90.1441 26.4366 89.5089 27.0276 88.6344 27.0276V27.5276C89.7007 27.5276 90.6441 26.7901 90.6441 25.7969H90.1441ZM88.6344 24.5661C89.5089 24.5661 90.1441 25.1571 90.1441 25.7969H90.6441C90.6441 24.8036 89.7007 24.0661 88.6344 24.0661V24.5661ZM85.025 21.2802C85.025 23.1155 86.6684 24.5661 88.6344 24.5661V24.0661C86.8957 24.0661 85.525 22.7929 85.525 21.2802H85.025ZM87.7805 18.0878C86.2182 18.4341 85.025 19.7191 85.025 21.2802H85.525C85.525 19.9915 86.5161 18.8802 87.8887 18.576L87.7805 18.0878ZM87.5846 17.9275V18.3319H88.0846V17.9275H87.5846ZM88.6344 16.8999C88.0614 16.8999 87.5846 17.3534 87.5846 17.9275H88.0846C88.0846 17.6427 88.3241 17.3999 88.6344 17.3999V16.8999ZM89.6843 17.9275C89.6843 17.3534 89.2075 16.8999 88.6344 16.8999V17.3999C88.9448 17.3999 89.1843 17.6427 89.1843 17.9275H89.6843ZM89.6843 18.3319V17.9275H89.1843V18.3319H89.6843ZM92.2439 21.2802C92.2439 19.7191 91.0507 18.4341 89.4884 18.0878L89.3802 18.576C90.7528 18.8802 91.7439 19.9915 91.7439 21.2802H92.2439ZM91.194 22.3079C91.7671 22.3079 92.2439 21.8543 92.2439 21.2802H91.7439C91.7439 21.565 91.5043 21.8079 91.194 21.8079V22.3079ZM90.1441 21.2802C90.1441 21.8543 90.6209 22.3079 91.194 22.3079V21.8079C90.8837 21.8079 90.6441 21.565 90.6441 21.2802H90.1441ZM88.6344 20.0495C89.5089 20.0495 90.1441 20.6405 90.1441 21.2802H90.6441C90.6441 20.287 89.7007 19.5495 88.6344 19.5495V20.0495ZM87.1247 21.2802C87.1247 20.6405 87.76 20.0495 88.6344 20.0495V19.5495C87.5682 19.5495 86.6247 20.287 86.6247 21.2802H87.1247Z" fill="#FF872C"/>
	<path d="M66.3959 63.3937H68.8655V53.8837H71.056V51.9526H68.8655V51.1428C68.8655 49.8346 69.381 49.3363 70.8842 49.3363V47.3637C67.7918 47.3637 66.3959 48.5057 66.3959 51.1428V51.9526H65V53.8837H66.3959V63.3937Z" fill="white"/>
	<path d="M73.2257 63.3937H75.6739V51.9526H73.2257V63.3937ZM74.4713 50.4368C75.3303 50.4368 76.0175 49.7723 76.0175 48.921C76.0175 48.0697 75.3303 47.4052 74.4713 47.4052C73.5908 47.4052 72.9036 48.0697 72.9036 48.921C72.9036 49.7723 73.5908 50.4368 74.4713 50.4368Z" fill="white"/>
	<path d="M87.2849 63.3937H89.7116V56.6453C89.7116 53.4476 87.6285 51.7657 84.8582 51.7657C83.4409 51.7657 82.1309 52.3263 81.3363 53.2607V51.9526H78.8881V63.3937H81.3363V56.9983C81.3363 54.9011 82.5174 53.8214 84.3214 53.8214C86.1038 53.8214 87.2849 54.9011 87.2849 56.9983V63.3937Z" fill="white"/>
	<path d="M92.0184 57.6212C92.0184 61.1511 94.4881 63.5806 97.559 63.5806C99.5347 63.5806 100.952 62.6669 101.704 61.691V63.3937H104.173V51.9526H101.704V53.6137C100.974 52.6793 99.5992 51.7657 97.602 51.7657C94.4881 51.7657 92.0184 54.0913 92.0184 57.6212ZM101.704 57.6628C101.704 60.1337 99.9642 61.5249 98.1174 61.5249C96.292 61.5249 94.531 60.0922 94.531 57.6212C94.531 55.1503 96.292 53.8214 98.1174 53.8214C99.9642 53.8214 101.704 55.2126 101.704 57.6628Z" fill="white"/>
	<path d="M115.786 63.3937H118.213V56.6453C118.213 53.4476 116.129 51.7657 113.359 51.7657C111.942 51.7657 110.632 52.3263 109.837 53.2607V51.9526H107.389V63.3937H109.837V56.9983C109.837 54.9011 111.018 53.8214 112.822 53.8214C114.605 53.8214 115.786 54.9011 115.786 56.9983V63.3937Z" fill="white"/>
	<path d="M120.519 57.6628C120.519 61.255 122.924 63.5806 126.318 63.5806C129.217 63.5806 131.107 62.0232 131.772 59.7807H129.131C128.68 60.9643 127.778 61.5872 126.318 61.5872C124.342 61.5872 123.032 60.1752 123.032 57.6628C123.032 55.171 124.342 53.7591 126.318 53.7591C127.778 53.7591 128.723 54.4651 129.131 55.5656H131.772C131.107 53.1569 129.217 51.7657 126.318 51.7657C122.924 51.7657 120.519 54.0913 120.519 57.6628Z" fill="white"/>
	<path d="M139.194 53.7591C141.02 53.7591 142.459 54.8803 142.502 56.6453H135.952C136.209 54.8388 137.541 53.7591 139.194 53.7591ZM144.735 59.9883H142.093C141.643 60.8812 140.805 61.5872 139.302 61.5872C137.498 61.5872 136.102 60.4452 135.93 58.5556H144.971C145.036 58.1611 145.057 57.7873 145.057 57.3928C145.057 54.029 142.673 51.7657 139.302 51.7657C135.801 51.7657 133.396 54.0705 133.396 57.6628C133.396 61.255 135.909 63.5806 139.302 63.5806C142.201 63.5806 144.069 61.9817 144.735 59.9883Z" fill="white"/>
	<path d="M156.293 60.196C156.164 56.0639 149.485 57.3513 149.485 55.0465C149.485 54.2782 150.172 53.7591 151.482 53.7591C152.814 53.7591 153.608 54.4443 153.694 55.441H156.142C156.013 53.1569 154.253 51.7657 151.568 51.7657C148.776 51.7657 147.015 53.24 147.015 55.0672C147.015 59.2616 153.887 57.9742 153.887 60.2168C153.887 61.0058 153.136 61.5872 151.718 61.5872C150.366 61.5872 149.442 60.8189 149.356 59.8845H146.822C146.929 61.961 148.927 63.5806 151.761 63.5806C154.553 63.5806 156.293 62.1271 156.293 60.196Z" fill="white"/>
	<path d="M19.0789 52.984C19.4629 52.232 20.0069 51.648 20.7109 51.232C21.4309 50.816 22.3029 50.608 23.3269 50.608V52.864H22.7509C20.3029 52.864 19.0789 54.192 19.0789 56.848V64H16.8949V50.848H19.0789V52.984Z" fill="white"/>
	<path d="M28.8133 53.296C29.2613 52.512 29.9173 51.872 30.7812 51.376C31.6453 50.88 32.6293 50.632 33.7333 50.632C34.9173 50.632 35.9813 50.912 36.9253 51.472C37.8693 52.032 38.6133 52.824 39.1573 53.848C39.7013 54.856 39.9733 56.032 39.9733 57.376C39.9733 58.704 39.7013 59.888 39.1573 60.928C38.6133 61.968 37.8612 62.776 36.9012 63.352C35.9573 63.928 34.9013 64.216 33.7333 64.216C32.5973 64.216 31.5973 63.968 30.7333 63.472C29.8853 62.976 29.2453 62.344 28.8133 61.576V64H26.6293V46.24H28.8133V53.296ZM37.7413 57.376C37.7413 56.384 37.5413 55.52 37.1413 54.784C36.7413 54.048 36.1973 53.488 35.5093 53.104C34.8373 52.72 34.0933 52.528 33.2773 52.528C32.4773 52.528 31.7333 52.728 31.0453 53.128C30.3733 53.512 29.8293 54.08 29.4133 54.832C29.0133 55.568 28.8133 56.424 28.8133 57.4C28.8133 58.392 29.0133 59.264 29.4133 60.016C29.8293 60.752 30.3733 61.32 31.0453 61.72C31.7333 62.104 32.4773 62.296 33.2773 62.296C34.0933 62.296 34.8373 62.104 35.5093 61.72C36.1973 61.32 36.7413 60.752 37.1413 60.016C37.5413 59.264 37.7413 58.384 37.7413 57.376Z" fill="white"/>
	<path d="M57.9374 50.608C58.9614 50.608 59.8734 50.824 60.6734 51.256C61.4734 51.672 62.1054 52.304 62.5694 53.152C63.0334 54 63.2654 55.032 63.2654 56.248V64H61.1054V56.56C61.1054 55.248 60.7774 54.248 60.1214 53.56C59.4814 52.856 58.6094 52.504 57.5054 52.504C56.3694 52.504 55.4654 52.872 54.7934 53.608C54.1214 54.328 53.7854 55.376 53.7854 56.752V64H51.6254V56.56C51.6254 55.248 51.2974 54.248 50.6414 53.56C50.0014 52.856 49.1294 52.504 48.0254 52.504C46.8894 52.504 45.9854 52.872 45.3134 53.608C44.6414 54.328 44.3054 55.376 44.3054 56.752V64H42.1214V50.848H44.3054V52.744C44.7374 52.056 45.3134 51.528 46.0334 51.16C46.7694 50.792 47.5774 50.608 48.4574 50.608C49.5614 50.608 50.5374 50.856 51.3854 51.352C52.2334 51.848 52.8654 52.576 53.2814 53.536C53.6494 52.608 54.2574 51.888 55.1054 51.376C55.9534 50.864 56.8974 50.608 57.9374 50.608Z" fill="white"/>
	</svg>
	